<?xml version="1.0" standalone="no"?>
<!DOCTYPE svg PUBLIC "-//W3C//DTD SVG 20010904//EN"
 "http://www.w3.org/TR/2001/REC-SVG-20010904/DTD/svg10.dtd">
<svg version="1.0" xmlns="http://www.w3.org/2000/svg"
 width="512.000000pt" height="512.000000pt" viewBox="0 0 512.000000 512.000000"
 preserveAspectRatio="xMidYMid meet">

<g transform="translate(0.000000,512.000000) scale(0.100000,-0.100000)"
fill="#000000" stroke="none">
<path d="M1430 5114 c-318 -40 -585 -161 -833 -378 -157 -138 -321 -345 -424
-536 -214 -396 -226 -844 -37 -1359 90 -245 295 -602 467 -815 l24 -29 66 52
66 52 -77 104 c-256 346 -426 715 -489 1065 -21 118 -23 364 -4 470 66 367
338 763 686 997 268 180 622 253 870 179 107 -32 247 -104 358 -183 44 -32
151 -126 236 -209 86 -83 166 -156 178 -163 51 -27 69 -17 207 117 158 153
215 202 326 277 184 126 362 188 535 188 416 1 832 -249 1120 -673 323 -474
322 -1006 -2 -1643 -109 -214 -303 -493 -492 -706 l-64 -72 59 -54 c33 -30 62
-54 65 -55 9 0 124 130 216 247 242 304 417 617 521 928 157 467 145 870 -37
1234 -216 432 -588 770 -991 900 -479 154 -869 39 -1313 -389 l-112 -108 -120
117 c-301 294 -572 434 -864 445 -58 2 -122 2 -141 0z"/>
<path d="M1577 4509 c-9 -5 -118 -152 -242 -325 -177 -248 -225 -322 -225
-346 0 -26 18 -49 109 -142 139 -140 132 -139 298 -28 l122 82 104 0 c88 0
106 -3 120 -18 15 -17 17 -65 17 -479 l0 -460 -47 -18 c-77 -28 -291 -142
-383 -203 -589 -392 -877 -1056 -760 -1757 10 -60 18 -111 17 -112 -2 -1 -46
24 -100 55 l-97 57 0 166 c0 188 -10 232 -65 296 -75 88 -221 109 -323 46 -53
-32 -106 -110 -116 -170 -11 -68 -7 -650 5 -676 7 -16 132 -100 373 -251 l362
-226 1950 2 1949 3 182 93 182 93 30 62 c88 184 102 421 36 609 -38 108 -80
173 -175 269 -113 114 -251 192 -386 218 -27 5 -260 12 -518 15 -463 5 -485 7
-486 36 0 3 27 18 60 33 33 15 85 48 114 72 l54 44 162 -46 c89 -24 166 -41
170 -36 4 4 17 40 28 80 l20 71 -129 38 c-71 20 -129 40 -129 44 0 4 14 38 32
76 28 61 32 82 36 174 l4 106 95 39 c52 22 96 42 98 45 7 11 -58 150 -70 150
-7 0 -38 -11 -69 -25 l-56 -25 0 30 c0 46 -18 82 -155 310 -131 218 -153 243
-206 233 -16 -3 -73 -52 -150 -129 -99 -99 -129 -124 -151 -124 l-28 0 0 536
0 535 57 60 56 59 64 0 c63 0 65 -1 181 -79 132 -88 149 -96 186 -82 32 13
226 300 226 336 0 22 -308 501 -365 568 l-23 27 -165 0 -165 0 -24 -28 c-12
-16 -54 -92 -93 -170 l-70 -142 -460 2 -460 3 -76 150 c-42 83 -85 158 -95
168 -15 15 -40 17 -218 17 -118 0 -208 -5 -219 -11z m412 -317 c60 -118 87
-162 106 -170 37 -17 1063 -17 1100 0 19 8 46 52 106 170 l80 158 79 0 80 0
140 -210 c77 -115 140 -212 140 -215 0 -5 -73 -118 -86 -134 -2 -2 -50 27
-106 64 -99 66 -106 68 -175 73 -138 9 -156 2 -261 -101 -52 -51 -100 -104
-108 -119 -12 -22 -14 -125 -14 -588 l0 -560 -107 0 -106 0 -128 125 c-119
117 -130 125 -166 125 -54 0 -67 -16 -213 -260 -107 -178 -124 -212 -128 -257
-2 -29 -6 -53 -7 -53 -2 0 -32 13 -68 29 l-65 29 -33 -74 c-19 -45 -28 -79
-23 -84 5 -5 50 -26 99 -47 l90 -39 5 -110 c5 -105 7 -113 50 -199 24 -50 46
-93 47 -96 2 -3 -61 -29 -139 -58 -79 -29 -147 -57 -151 -60 -13 -12 48 -156
64 -153 8 2 92 32 187 68 l173 64 33 -25 c39 -30 168 -90 214 -100 l32 -7 0
-265 0 -265 -249 7 -249 7 -7 -53 c-4 -30 -5 -70 -3 -89 l3 -35 253 -3 252 -2
0 -255 0 -255 -84 0 -84 0 -7 47 c-16 111 -92 213 -195 262 -48 23 -70 26
-181 29 l-127 4 -11 87 c-50 394 -375 681 -771 681 l-80 0 0 -85 0 -85 73 0
c270 -1 504 -166 582 -414 17 -53 27 -112 31 -185 3 -58 10 -116 16 -127 18
-37 51 -44 209 -44 105 0 159 -4 182 -14 39 -16 82 -61 96 -99 24 -61 84 -57
-787 -57 l-798 0 -309 193 -310 194 -3 274 c-1 151 0 284 3 297 15 62 94 84
140 37 25 -24 25 -25 25 -222 0 -157 3 -203 14 -219 8 -11 118 -82 243 -157
242 -145 273 -157 313 -117 32 32 32 60 2 160 -83 267 -100 578 -47 830 112
534 503 971 1058 1185 79 30 101 43 113 66 12 25 14 106 12 564 l-3 535 -68
67 -67 68 -158 0 -157 0 -109 -73 -110 -73 -34 34 c-24 25 -32 39 -26 49 5 8
85 121 179 252 l169 236 123 0 122 0 80 -158z m696 -1702 l102 -100 277 0
c183 0 285 4 299 11 12 6 63 52 113 101 l91 90 92 -152 c89 -148 91 -152 91
-214 l0 -64 -136 -58 c-74 -32 -137 -61 -140 -65 -6 -11 48 -140 61 -145 6 -3
57 16 113 40 l102 45 0 -49 c0 -54 -10 -85 -45 -146 l-25 -42 -77 23 -78 23
-22 -72 c-29 -89 -29 -90 4 -102 l28 -9 -49 -24 c-28 -12 -81 -29 -119 -37
-90 -19 -103 -27 -117 -68 -16 -49 -1 -73 114 -184 l95 -92 479 0 c533 0 545
-1 687 -71 97 -47 220 -169 263 -260 47 -102 56 -144 56 -269 -1 -97 -5 -128
-28 -198 l-27 -82 -149 -75 -150 -75 -388 0 -388 0 -32 98 c-27 84 -32 113
-32 198 l0 99 65 97 c52 78 70 97 95 103 39 8 75 -13 84 -51 5 -19 -2 -46 -28
-101 -52 -109 -49 -125 29 -203 l66 -65 229 -3 230 -3 0 85 0 86 -194 0 c-127
0 -197 4 -201 11 -4 5 3 34 16 62 83 191 -71 390 -267 347 -81 -18 -117 -50
-206 -183 l-83 -122 -3 -133 c-4 -121 -2 -141 22 -217 14 -45 26 -88 26 -94 0
-8 -47 -11 -150 -11 l-150 0 0 300 0 300 -85 0 -85 0 0 -300 0 -300 -130 0
-130 0 0 654 c0 760 10 694 -107 716 -38 7 -86 21 -108 30 l-40 17 40 13 c79
25 77 22 49 98 -14 37 -29 71 -34 76 -5 5 -51 -7 -109 -29 l-101 -37 -19 23
c-11 13 -34 52 -51 87 -24 50 -30 74 -28 111 l3 48 100 -43 c55 -24 105 -43
110 -43 12 -1 76 147 67 153 -4 2 -69 29 -144 61 l-138 58 0 59 c0 58 3 66 92
214 51 85 95 154 97 154 3 0 51 -45 106 -100z"/>
<path d="M2220 3585 l0 -85 85 0 85 0 0 85 0 85 -85 0 -85 0 0 -85z"/>
<path d="M2730 3585 l0 -85 85 0 85 0 0 85 0 85 -85 0 -85 0 0 -85z"/>
<path d="M2390 3245 l0 -85 170 0 170 0 0 85 0 85 -170 0 -170 0 0 -85z"/>
<path d="M2730 2135 l0 -85 85 0 85 0 0 85 0 85 -85 0 -85 0 0 -85z"/>
<path d="M3240 2135 l0 -85 85 0 85 0 0 85 0 85 -85 0 -85 0 0 -85z"/>
<path d="M2990 1875 l0 -85 85 0 85 0 0 85 0 85 -85 0 -85 0 0 -85z"/>
</g>
</svg>
